<?xml version="1.0" encoding="UTF-8"?>
<svg id="Layer_2" data-name="Layer 2" xmlns="http://www.w3.org/2000/svg" viewBox="0 0 393.59 229.2">
  <defs>
    <style>
      .cls-1 {
        fill: #1c431e;
      }
    </style>
  </defs>
  <g id="Layer_1-2" data-name="Layer 1">
    <g>
      <path class="cls-1" d="M105,103.2v120.6s-21,5.4-41.4,5.4C4.2,229.2,0,182.4,0,119.7,0,48.6,5.4,0,70.8,0c16.2,0,30.6,3,30.6,3v37.2h-1.8s-13.8-3-25.8-3c-29.4,0-31.2,18.3-31.2,80.4,0,50.7,1.2,76.2,19.8,76.2,2.7,0,6.6-.6,6.6-.6v-52.2h-13.8v-37.8h49.8Z"/>
      <path class="cls-1" d="M169.8,1.8v186h31.8v39.6h-74.4V1.8h42.6Z"/>
      <path class="cls-1" d="M257.99,1.8v225.6h-42.6V1.8h42.6Z"/>
      <path class="cls-1" d="M350.99,227.4l-5.7-46.8h-32.7l-6,46.8h-36L304.19,1.8h56.4l33,225.6h-42.6ZM317.09,145.8h24.3l-11.4-97.2-12.9,97.2Z"/>
    </g>
  </g>
</svg>