<?xml version="1.0" encoding="UTF-8"?>
<svg id="Layer_2" data-name="Layer 2" xmlns="http://www.w3.org/2000/svg" viewBox="0 0 419.84 244.49">
  <defs>
    <style>
      .cls-1 {
        fill: #ff2424;
      }
    </style>
  </defs>
  <g id="Layer_1-2" data-name="Layer 1">
    <g>
      <path class="cls-1" d="M112,110.08v128.64s-22.4,5.76-44.16,5.76C4.48,244.49,0,194.56,0,127.68,0,51.84,5.76,0,75.52,0c17.28,0,32.64,3.2,32.64,3.2v39.68h-1.92s-14.72-3.2-27.52-3.2c-31.36,0-33.28,19.52-33.28,85.76,0,54.08,1.28,81.28,21.12,81.28,2.88,0,7.04-.64,7.04-.64v-55.68h-14.72v-40.32h53.12Z"/>
      <path class="cls-1" d="M181.12,1.92v198.4h33.92v42.24h-79.36V1.92h45.44Z"/>
      <path class="cls-1" d="M275.19,1.92v240.65h-45.44V1.92h45.44Z"/>
      <path class="cls-1" d="M374.39,242.57l-6.08-49.92h-34.88l-6.4,49.92h-38.4L324.47,1.92h60.16l35.2,240.65h-45.44ZM338.23,155.52h25.92l-12.16-103.68-13.76,103.68Z"/>
    </g>
  </g>
</svg>